<svg xmlns="http://www.w3.org/2000/svg" width="27.782" height="13.891" viewBox="0 0 27.782 13.891">
  <g id="united-kingdom-flag" transform="translate(-744.5 -921.5)">
    <rect id="_x31_4" width="27.767" height="13.889" transform="translate(744.5 921.5)" fill="#fff"/>
    <path id="_x31_3" d="M757,929.829v5.56h2.777v-5.56h12.495v-2.776H759.772V921.5H757v5.553H744.5v2.776Z" fill="#cf142b"/>
    <path id="_x31_2" d="M919.415,926v-4.5h8.99Z" transform="translate(-158.717)" fill="#00247d"/>
    <path id="_x31_1" d="M919.415,1022.93v4.5h8.99Z" transform="translate(-158.717 -92.037)" fill="#00247d"/>
    <path id="_x31_0" d="M781.339,1022.93v4.5h-8.99Z" transform="translate(-25.27 -92.037)" fill="#00247d"/>
    <path id="_x39_" d="M781.339,926v-4.5h-8.99Z" transform="translate(-25.27)" fill="#00247d"/>
    <path id="_x38_" d="M744.5,935.442v3.339h6.676Z" transform="translate(-0.001 -12.651)" fill="#00247d"/>
    <path id="_x37_" d="M978.931,935.442v3.339h-6.675Z" transform="translate(-206.665 -12.651)" fill="#00247d"/>
    <path id="_x36_" d="M978.931,1024.828v-3.338h-6.675Z" transform="translate(-206.665 -90.73)" fill="#00247d"/>
    <path id="_x35_" d="M744.5,1024.828v-3.338h6.676Z" transform="translate(-0.001 -90.73)" fill="#00247d"/>
    <path id="_x34_" d="M938.683,921.5h-1.542l-9.241,4.63h1.542l9.256-4.63" transform="translate(-166.416)" fill="#cf142b"/>
    <path id="_x33_" d="M755.283,1021.49h-1.542l-9.241,4.629h1.542l9.256-4.629" transform="translate(0 -90.73)" fill="#cf142b"/>
    <path id="_x32_" d="M752.211,926.133h1.542L744.5,921.5v.776Z" fill="#cf142b"/>
    <path id="_x31_" d="M945.911,1021.47h-1.542l9.253,4.633v-.777Z" transform="translate(-181.36 -90.712)" fill="#cf142b"/>
  </g>
</svg>
