<svg xmlns="http://www.w3.org/2000/svg" width="48" height="48" viewBox="0 0 48 48">
  <g id="Groupe_7" data-name="Groupe 7" transform="translate(6 12)">
    <path id="Tracé_7" data-name="Tracé 7" d="M0,0H48V48H0Z" transform="translate(-6 -12)" fill="#0a0a22"/>
    <g id="Groupe_2" data-name="Groupe 2" transform="translate(0 0.003)">
      <path id="Tracé_1" data-name="Tracé 1" d="M13.322,6.646a.714.714,0,0,1,.238.459c0,.3-.347.7-.988,1.356A12.645,12.645,0,0,0,8.558,18a13.5,13.5,0,0,0,4.178,10.213c.579.517.816.924.817,1.272a1.026,1.026,0,0,1-.236.519.842.842,0,0,1-.518.238c-.637,0-1.528-.751-2.691-2.216A15.108,15.108,0,0,1,6.761,18,13.609,13.609,0,0,1,10.584,8.06c.923-1.046,1.693-1.589,2.219-1.59A.912.912,0,0,1,13.322,6.646Z" transform="translate(-6.759 -6.47)" fill="#fff"/>
      <g id="Groupe_1" data-name="Groupe 1">
        <path id="Tracé_2" data-name="Tracé 2" d="M13.322,6.646a.714.714,0,0,1,.238.459c0,.3-.347.7-.988,1.356A12.645,12.645,0,0,0,8.558,18a13.5,13.5,0,0,0,4.178,10.213c.579.517.816.924.817,1.272a1.026,1.026,0,0,1-.236.519.842.842,0,0,1-.518.238c-.637,0-1.528-.751-2.691-2.216A15.108,15.108,0,0,1,6.761,18,13.609,13.609,0,0,1,10.584,8.06c.923-1.046,1.693-1.589,2.219-1.59A.912.912,0,0,1,13.322,6.646Z" transform="translate(-6.759 -6.47)" fill="rgba(0,0,0,0)" stroke="rgba(255,255,255,0)" stroke-width="1"/>
      </g>
    </g>
    <g id="Groupe_4" data-name="Groupe 4" transform="translate(10.805 1.317)">
      <path id="Tracé_3" data-name="Tracé 3" d="M230.719,43.478c-1.006-.257,3.121-5.132-4.213-10.968,0,0,.962,3.057-3.89,9.879s2.158,10.882,2.158,10.882-3.291-1.754.535-8A36.539,36.539,0,0,0,228,40.806s.985,1.39.471,4.4c-.769,4.554,3.335,3.251,3.4,3.314,1.433,1.688-1.187,4.654-1.347,4.747s7.484-4.6,2.054-11.653C232.207,41.99,231.724,43.736,230.719,43.478Z" transform="translate(-220.905 -32.51)" fill="#fff"/>
      <g id="Groupe_3" data-name="Groupe 3">
        <path id="Tracé_4" data-name="Tracé 4" d="M230.719,43.478c-1.006-.257,3.121-5.132-4.213-10.968,0,0,.962,3.057-3.89,9.879s2.158,10.882,2.158,10.882-3.291-1.754.535-8A36.539,36.539,0,0,0,228,40.806s.985,1.39.471,4.4c-.769,4.554,3.335,3.251,3.4,3.314,1.433,1.688-1.187,4.654-1.347,4.747s7.484-4.6,2.054-11.653C232.207,41.99,231.724,43.736,230.719,43.478Z" transform="translate(-220.905 -32.51)" fill="rgba(0,0,0,0)" stroke="rgba(255,255,255,0)" stroke-width="1"/>
      </g>
    </g>
    <g id="Groupe_6" data-name="Groupe 6" transform="translate(28.446 0)">
      <path id="Tracé_5" data-name="Tracé 5" d="M570.788,6.586a.713.713,0,0,0-.238.459c0,.3.347.7.988,1.356a12.644,12.644,0,0,1,4.013,9.538,13.5,13.5,0,0,1-4.178,10.213c-.579.517-.816.924-.817,1.272a1.026,1.026,0,0,0,.235.519.845.845,0,0,0,.518.238c.637,0,1.528-.751,2.691-2.216a15.107,15.107,0,0,0,3.347-10.021A13.609,13.609,0,0,0,573.525,8c-.923-1.046-1.693-1.589-2.219-1.59A.912.912,0,0,0,570.788,6.586Z" transform="translate(-570.55 -6.41)" fill="#fff"/>
      <g id="Groupe_5" data-name="Groupe 5">
        <path id="Tracé_6" data-name="Tracé 6" d="M570.788,6.586a.713.713,0,0,0-.238.459c0,.3.347.7.988,1.356a12.644,12.644,0,0,1,4.013,9.538,13.5,13.5,0,0,1-4.178,10.213c-.579.517-.816.924-.817,1.272a1.026,1.026,0,0,0,.235.519.845.845,0,0,0,.518.238c.637,0,1.528-.751,2.691-2.216a15.107,15.107,0,0,0,3.347-10.021A13.609,13.609,0,0,0,573.525,8c-.923-1.046-1.693-1.589-2.219-1.59A.912.912,0,0,0,570.788,6.586Z" transform="translate(-570.55 -6.41)" fill="rgba(0,0,0,0)" stroke="rgba(255,255,255,0)" stroke-width="1"/>
      </g>
    </g>
  </g>
</svg>
