<svg xmlns="http://www.w3.org/2000/svg" width="42.999" height="29.329" viewBox="0 0 42.999 29.329">
  <g id="fcc_primary_small" transform="translate(-6.26 -5.91)">
    <g id="Groupe_17" data-name="Groupe 17" transform="translate(6.759 6.41)">
      <g id="Groupe_12" data-name="Groupe 12" transform="translate(0 0.004)">
        <path id="Tracé_14" data-name="Tracé 14" d="M14.58,6.68a.85.85,0,0,1,.283.547c0,.352-.413.83-1.178,1.615A15.068,15.068,0,0,0,8.9,20.208a16.093,16.093,0,0,0,4.978,12.169c.69.616.973,1.1.974,1.516a1.222,1.222,0,0,1-.281.619,1,1,0,0,1-.617.283c-.759,0-1.821-.9-3.207-2.641-2.7-3.309-3.92-6.962-3.989-11.942A16.217,16.217,0,0,1,11.317,8.365c1.1-1.246,2.018-1.894,2.644-1.9A1.087,1.087,0,0,1,14.58,6.68Z" transform="translate(-6.759 -6.47)"/>
        <g id="Groupe_11" data-name="Groupe 11">
          <path id="Tracé_15" data-name="Tracé 15" d="M14.58,6.68a.85.85,0,0,1,.283.547c0,.352-.413.83-1.178,1.615A15.068,15.068,0,0,0,8.9,20.208a16.093,16.093,0,0,0,4.978,12.169c.69.616.973,1.1.974,1.516a1.222,1.222,0,0,1-.281.619,1,1,0,0,1-.617.283c-.759,0-1.821-.9-3.207-2.641-2.7-3.309-3.92-6.962-3.989-11.942A16.217,16.217,0,0,1,11.317,8.365c1.1-1.246,2.018-1.894,2.644-1.9A1.087,1.087,0,0,1,14.58,6.68Z" transform="translate(-6.759 -6.47)" stroke="rgba(255,255,255,0)" stroke-width="1"/>
        </g>
      </g>
      <g id="Groupe_14" data-name="Groupe 14" transform="translate(12.875 1.569)">
        <path id="Tracé_16" data-name="Tracé 16" d="M232.6,45.58c-1.2-.306,3.719-6.115-5.02-13.07,0,0,1.147,3.643-4.635,11.772s2.572,12.967,2.572,12.967-3.922-2.09.637-9.531a43.539,43.539,0,0,0,3.209-5.323s1.174,1.656.561,5.248c-.916,5.427,3.974,3.874,4.049,3.949,1.708,2.011-1.415,5.546-1.6,5.657s8.918-5.478,2.448-13.886C234.373,43.806,233.8,45.887,232.6,45.58Z" transform="translate(-220.905 -32.51)"/>
        <g id="Groupe_13" data-name="Groupe 13" transform="translate(0)">
          <path id="Tracé_17" data-name="Tracé 17" d="M232.6,45.58c-1.2-.306,3.719-6.115-5.02-13.07,0,0,1.147,3.643-4.635,11.772s2.572,12.967,2.572,12.967-3.922-2.09.637-9.531a43.539,43.539,0,0,0,3.209-5.323s1.174,1.656.561,5.248c-.916,5.427,3.974,3.874,4.049,3.949,1.708,2.011-1.415,5.546-1.6,5.657s8.918-5.478,2.448-13.886C234.373,43.806,233.8,45.887,232.6,45.58Z" transform="translate(-220.905 -32.51)" stroke="rgba(255,255,255,0)" stroke-width="1"/>
        </g>
      </g>
      <g id="Groupe_16" data-name="Groupe 16" transform="translate(33.897 0)">
        <path id="Tracé_18" data-name="Tracé 18" d="M570.833,6.62a.851.851,0,0,0-.283.547c0,.352.413.83,1.178,1.615a15.068,15.068,0,0,1,4.782,11.366,16.092,16.092,0,0,1-4.978,12.169c-.69.616-.973,1.1-.974,1.516a1.223,1.223,0,0,0,.281.619,1.006,1.006,0,0,0,.617.283c.759,0,1.821-.9,3.207-2.641,2.7-3.309,3.92-6.962,3.989-11.942A16.217,16.217,0,0,0,574.1,8.305c-1.1-1.246-2.018-1.894-2.644-1.9A1.087,1.087,0,0,0,570.833,6.62Z" transform="translate(-570.55 -6.41)"/>
        <g id="Groupe_15" data-name="Groupe 15">
          <path id="Tracé_19" data-name="Tracé 19" d="M570.833,6.62a.851.851,0,0,0-.283.547c0,.352.413.83,1.178,1.615a15.068,15.068,0,0,1,4.782,11.366,16.092,16.092,0,0,1-4.978,12.169c-.69.616-.973,1.1-.974,1.516a1.223,1.223,0,0,0,.281.619,1.006,1.006,0,0,0,.617.283c.759,0,1.821-.9,3.207-2.641,2.7-3.309,3.92-6.962,3.989-11.942A16.217,16.217,0,0,0,574.1,8.305c-1.1-1.246-2.018-1.894-2.644-1.9A1.087,1.087,0,0,0,570.833,6.62Z" transform="translate(-570.55 -6.41)" stroke="rgba(255,255,255,0)" stroke-width="1"/>
        </g>
      </g>
    </g>
  </g>
</svg>
