<svg xmlns="http://www.w3.org/2000/svg" xmlns:xlink="http://www.w3.org/1999/xlink" width="48" height="48" viewBox="0 0 48 48">
  <defs>
    <clipPath id="clip-Web_1920_1">
      <rect width="48" height="48"/>
    </clipPath>
  </defs>
  <g id="Web_1920_1" data-name="Web 1920 – 1" clip-path="url(#clip-Web_1920_1)">
    <path id="path8" d="M0,0H47.956V47.956H0ZM41.894,22.02c-.036-.723-.12-1.448-.17-2.166a1.741,1.741,0,0,0-.4-.98,2.465,2.465,0,0,0-1.026-.74c-.808-.314-1.622-.664-2.435-.975a21.509,21.509,0,0,1-3.342-1.472,2.626,2.626,0,0,1-1.3-1.972,2.954,2.954,0,0,0-1.47-2.228,4.062,4.062,0,0,0-2.958-.35,4.5,4.5,0,0,1-2.23-.033l-1.112-.34-.3-.09-.873-.26a7.973,7.973,0,0,0-4.773-.278,14.678,14.678,0,0,0-7.09,3.9l-6.37,6.76h5.72l-3.5,3.71h6.026l-3.5,3.71h4.844l-1.548,4.06a25.877,25.877,0,0,0,12.25,7.3c0-1.673.38-8.24.826-9.34a5.25,5.25,0,0,1,.762-1.54,4.211,4.211,0,0,1,3.393-1.547,10.721,10.721,0,0,1,3.815.7,2.617,2.617,0,0,0,2.277-.122c.507-.3,1.007-.618,1.5-.94a.839.839,0,0,1,.556-.18,1.234,1.234,0,0,0,1.27-.734c.16-.33.35-.64.524-.97a5.453,5.453,0,0,0,.633-2.88Z"/>
  </g>
</svg>
