<svg xmlns="http://www.w3.org/2000/svg" width="270.561" height="240.946" viewBox="0 0 270.561 240.946">
  <g id="react" transform="translate(-175.7 -78)">
    <path id="Tracé_21" data-name="Tracé 21" d="M446.262,198.5c0-17.923-22.446-34.909-56.859-45.443,7.941-35.075,4.412-62.98-11.14-71.914a24.179,24.179,0,0,0-12.353-3.088v12.3a12.77,12.77,0,0,1,6.287,1.434c7.5,4.3,10.754,20.681,8.217,41.748-.607,5.184-1.6,10.644-2.813,16.214a267.261,267.261,0,0,0-35.02-6.011,269.011,269.011,0,0,0-22.942-27.575C337.618,99.453,354.493,90.3,365.964,90.3V78h0c-15.166,0-35.02,10.809-55.094,29.56C290.8,88.92,270.943,78.221,255.777,78.221v12.3c11.416,0,28.347,9.1,46.325,25.7a260.478,260.478,0,0,0-22.777,27.519A257.532,257.532,0,0,0,244.25,149.8c-1.268-5.515-2.206-10.864-2.868-15.993-2.592-21.067.607-37.446,8.052-41.8a12.273,12.273,0,0,1,6.342-1.434v-12.3h0a24.59,24.59,0,0,0-12.464,3.088c-15.5,8.934-18.971,36.784-10.975,71.749C198.035,163.7,175.7,180.633,175.7,198.5c0,17.923,22.446,34.909,56.859,45.443-7.941,35.075-4.412,62.98,11.14,71.914a24.243,24.243,0,0,0,12.409,3.088c15.166,0,35.02-10.809,55.094-29.56,20.074,18.64,39.928,29.339,55.094,29.339a24.59,24.59,0,0,0,12.464-3.088c15.5-8.934,18.971-36.784,10.975-71.749C423.926,233.355,446.262,216.369,446.262,198.5Zm-71.8-36.784c-2.041,7.114-4.577,14.449-7.445,21.784-2.261-4.412-4.633-8.824-7.225-13.236-2.537-4.412-5.239-8.714-7.941-12.9C359.677,158.518,367.233,159.952,374.457,161.716ZM349.2,220.45c-4.3,7.445-8.714,14.5-13.291,21.067-8.217.717-16.545,1.1-24.927,1.1-8.328,0-16.655-.386-24.817-1.048q-6.866-9.844-13.346-20.957-6.287-10.837-11.471-21.949c3.419-7.39,7.28-14.78,11.416-22,4.3-7.445,8.714-14.5,13.291-21.067,8.217-.717,16.545-1.1,24.927-1.1,8.328,0,16.655.386,24.817,1.048q6.866,9.844,13.346,20.957,6.287,10.837,11.471,21.949C357.141,205.836,353.335,213.226,349.2,220.45Zm17.813-7.169c2.978,7.39,5.515,14.78,7.611,21.949-7.225,1.765-14.835,3.254-22.721,4.412,2.7-4.246,5.4-8.6,7.941-13.07C362.38,222.16,364.751,217.693,367.012,213.281Zm-55.921,58.844a227.357,227.357,0,0,1-15.331-17.648c4.963.221,10.037.386,15.166.386,5.184,0,10.313-.11,15.331-.386A215.265,215.265,0,0,1,311.091,272.125ZM270.06,239.642c-7.831-1.158-15.387-2.592-22.611-4.357,2.041-7.114,4.577-14.449,7.445-21.784,2.261,4.412,4.633,8.824,7.225,13.236S267.358,235.451,270.06,239.642Zm40.755-114.765a227.361,227.361,0,0,1,15.331,17.648c-4.963-.221-10.037-.386-15.166-.386-5.184,0-10.313.11-15.331.386A215.263,215.263,0,0,1,310.815,124.877Zm-40.81,32.483c-2.7,4.246-5.4,8.6-7.941,13.07-2.537,4.412-4.908,8.824-7.169,13.236-2.978-7.39-5.515-14.78-7.611-21.949C254.508,160.007,262.119,158.518,270.005,157.36ZM220.1,226.406c-19.523-8.328-32.152-19.247-32.152-27.905S200.572,178.868,220.1,170.6c4.743-2.041,9.927-3.86,15.276-5.57a264.875,264.875,0,0,0,12.409,33.586,261.139,261.139,0,0,0-12.243,33.42C230.077,230.322,224.893,228.447,220.1,226.406Zm29.67,78.808c-7.5-4.3-10.754-20.681-8.217-41.748.607-5.184,1.6-10.644,2.813-16.214a267.266,267.266,0,0,0,35.02,6.011,269.027,269.027,0,0,0,22.942,27.575C284.344,297.549,267.468,306.7,256,306.7A13.161,13.161,0,0,1,249.765,305.214Zm130.814-42.024c2.592,21.067-.607,37.446-8.052,41.8a12.274,12.274,0,0,1-6.342,1.434c-11.416,0-28.347-9.1-46.325-25.7a260.48,260.48,0,0,0,22.777-27.519,257.534,257.534,0,0,0,35.075-6.066A154.4,154.4,0,0,1,380.579,263.191Zm21.232-36.784c-4.743,2.041-9.927,3.86-15.276,5.57a264.876,264.876,0,0,0-12.409-33.586,261.141,261.141,0,0,0,12.243-33.42c5.46,1.71,10.644,3.585,15.5,5.625,19.523,8.328,32.152,19.247,32.152,27.905C433.963,207.159,421.334,218.134,401.811,226.406Z" fill="#61dafb"/>
    <path id="Tracé_22" data-name="Tracé 22" d="M320.8,78.4Z" transform="translate(-65.079 -0.179)" fill="#61dafb"/>
    <circle id="Ellipse_3" data-name="Ellipse 3" cx="25.203" cy="25.203" r="25.203" transform="translate(285.723 173.298)" fill="#61dafb"/>
    <path id="Tracé_23" data-name="Tracé 23" d="M520.5,78.1Z" transform="translate(-154.646 -0.045)" fill="#61dafb"/>
  </g>
</svg>
